<mxfile host="app.diagrams.net" modified="2022-12-28T10:03:07.409Z" agent="5.0 (X11; Linux x86_64) AppleWebKit/537.36 (KHTML, like Gecko) Chrome/108.0.0.0 Safari/537.36" etag="Xp9Ym_I-qgnuVzxVGo5x" version="20.7.4" type="github">
  <diagram id="iju5pOygdDxo4xcLel-_" name="Page-1">
    <mxGraphModel dx="1401" dy="711" grid="1" gridSize="10" guides="1" tooltips="1" connect="1" arrows="1" fold="1" page="1" pageScale="1" pageWidth="827" pageHeight="1169" math="0" shadow="0">
      <root>
        <mxCell id="0" />
        <mxCell id="1" parent="0" />
        <mxCell id="RDJNClESdxmCvVbitQK3-1" value="" style="html=1;verticalLabelPosition=bottom;align=center;labelBackgroundColor=#ffffff;verticalAlign=top;strokeWidth=2;strokeColor=#0080F0;shadow=0;dashed=0;shape=mxgraph.ios7.icons.cloud;" parent="1" vertex="1">
          <mxGeometry x="30" y="20" width="170" height="120" as="geometry" />
        </mxCell>
        <mxCell id="RDJNClESdxmCvVbitQK3-2" value="&lt;h3 style=&quot;font-size: 17px;&quot;&gt;&lt;b style=&quot;font-size: 17px;&quot;&gt;&lt;font style=&quot;font-size: 17px;&quot;&gt;The Interwebz&lt;/font&gt;&lt;/b&gt;&lt;/h3&gt;" style="text;strokeColor=none;align=center;fillColor=none;html=1;verticalAlign=middle;whiteSpace=wrap;rounded=0;fontFamily=Verdana;fontSize=17;" parent="1" vertex="1">
          <mxGeometry x="40" y="60" width="150" height="70" as="geometry" />
        </mxCell>
        <mxCell id="RDJNClESdxmCvVbitQK3-3" value="" style="edgeStyle=none;orthogonalLoop=1;jettySize=auto;html=1;fontFamily=Times New Roman;fontSize=21;fillColor=#dae8fc;strokeColor=#6c8ebf;strokeWidth=2;rounded=0;" parent="1" edge="1">
          <mxGeometry width="80" relative="1" as="geometry">
            <mxPoint x="200" y="110" as="sourcePoint" />
            <mxPoint x="290" y="110" as="targetPoint" />
            <Array as="points" />
          </mxGeometry>
        </mxCell>
        <mxCell id="RDJNClESdxmCvVbitQK3-4" value="Iskratel GGPON Gateway" style="fontColor=#000000;verticalAlign=top;verticalLabelPosition=bottom;labelPosition=center;align=center;html=1;outlineConnect=0;fillColor=#CCCCCC;strokeColor=#6881B3;gradientColor=none;gradientDirection=north;strokeWidth=2;shape=mxgraph.networks.modem;fontFamily=Helvetica;fontSize=13;fontStyle=1" parent="1" vertex="1">
          <mxGeometry x="290" y="90" width="100" height="40" as="geometry" />
        </mxCell>
        <mxCell id="RDJNClESdxmCvVbitQK3-5" value="250/50Mbps" style="text;strokeColor=none;align=center;fillColor=none;html=1;verticalAlign=middle;whiteSpace=wrap;rounded=0;fontFamily=Verdana;fontSize=10;fontColor=#000000;" parent="1" vertex="1">
          <mxGeometry x="310" y="100" width="60" height="30" as="geometry" />
        </mxCell>
        <mxCell id="RDJNClESdxmCvVbitQK3-7" value="" style="endArrow=none;html=1;rounded=0;labelBorderColor=none;strokeColor=#6c8ebf;strokeWidth=2;fontFamily=Verdana;fontSize=10;fontColor=#000000;fillColor=#dae8fc;" parent="1" edge="1">
          <mxGeometry width="50" height="50" relative="1" as="geometry">
            <mxPoint x="390" y="110" as="sourcePoint" />
            <mxPoint x="510" y="110" as="targetPoint" />
          </mxGeometry>
        </mxCell>
        <mxCell id="RDJNClESdxmCvVbitQK3-8" value="Bridge eth3&lt;br&gt;" style="text;strokeColor=none;align=center;fillColor=none;html=1;verticalAlign=middle;whiteSpace=wrap;rounded=0;fontFamily=Verdana;fontSize=10;fontColor=#000000;" parent="1" vertex="1">
          <mxGeometry x="390" y="80" width="60" height="30" as="geometry" />
        </mxCell>
        <mxCell id="RDJNClESdxmCvVbitQK3-18" value="" style="shape=image;imageAspect=0;aspect=fixed;verticalLabelPosition=bottom;verticalAlign=top;fontFamily=Verdana;fontSize=10;fontColor=#000000;image=https://trademarks.justia.com/media/image.php?serial=79113233;" parent="1" vertex="1">
          <mxGeometry x="285" y="50.6" width="110" height="29.4" as="geometry" />
        </mxCell>
        <mxCell id="RDJNClESdxmCvVbitQK3-19" value="&lt;b style=&quot;&quot;&gt;&lt;font style=&quot;font-size: 12px;&quot;&gt;Mikrotik Firewall&lt;/font&gt;&lt;/b&gt;" style="image;html=1;image=img/lib/clip_art/networking/Firewall_02_128x128.png;fontFamily=Verdana;fontSize=11;fontColor=#000000;" parent="1" vertex="1">
          <mxGeometry x="500" y="55" width="80" height="80" as="geometry" />
        </mxCell>
        <mxCell id="RDJNClESdxmCvVbitQK3-21" value="" style="endArrow=none;html=1;rounded=0;labelBorderColor=none;strokeColor=#6c8ebf;strokeWidth=2;fontFamily=Verdana;fontSize=10;fontColor=#000000;fillColor=#dae8fc;" parent="1" edge="1">
          <mxGeometry width="50" height="50" relative="1" as="geometry">
            <mxPoint x="570" y="110" as="sourcePoint" />
            <mxPoint x="660" y="110" as="targetPoint" />
          </mxGeometry>
        </mxCell>
        <mxCell id="RDJNClESdxmCvVbitQK3-23" value="eth1" style="text;strokeColor=none;align=center;fillColor=none;html=1;verticalAlign=middle;whiteSpace=wrap;rounded=0;fontFamily=Verdana;fontSize=10;fontColor=#000000;" parent="1" vertex="1">
          <mxGeometry x="610" y="80" width="60" height="30" as="geometry" />
        </mxCell>
        <mxCell id="RDJNClESdxmCvVbitQK3-24" value="&lt;blockquote style=&quot;margin: 0 0 0 40px; border: none; padding: 0px;&quot;&gt;&lt;blockquote style=&quot;margin: 0 0 0 40px; border: none; padding: 0px;&quot;&gt;&lt;div style=&quot;&quot;&gt;&lt;span style=&quot;color: rgb(0, 0, 0); background-color: transparent;&quot;&gt;10.0.1.1&lt;/span&gt;&lt;/div&gt;&lt;/blockquote&gt;&lt;/blockquote&gt;" style="fontColor=#0066CC;verticalAlign=top;verticalLabelPosition=bottom;labelPosition=center;align=center;html=1;outlineConnect=0;fillColor=#CCCCCC;strokeColor=#6881B3;gradientColor=none;gradientDirection=north;strokeWidth=2;shape=mxgraph.networks.router;fontFamily=Verdana;fontSize=12;" parent="1" vertex="1">
          <mxGeometry x="660" y="95" width="100" height="30" as="geometry" />
        </mxCell>
        <mxCell id="RDJNClESdxmCvVbitQK3-25" value="" style="shape=image;imageAspect=0;aspect=fixed;verticalLabelPosition=bottom;verticalAlign=top;fontFamily=Verdana;fontSize=12;fontColor=#000000;image=https://mikrotik.com/img/mtv2/newlogo.svg;" parent="1" vertex="1">
          <mxGeometry x="635.77" y="60" width="148.46" height="25.73" as="geometry" />
        </mxCell>
        <mxCell id="RDJNClESdxmCvVbitQK3-26" value="" style="endArrow=none;html=1;rounded=0;labelBorderColor=none;strokeColor=#6c8ebf;strokeWidth=2;fontFamily=Verdana;fontSize=10;fontColor=#000000;fillColor=#dae8fc;" parent="1" edge="1">
          <mxGeometry width="50" height="50" relative="1" as="geometry">
            <mxPoint x="760" y="110" as="sourcePoint" />
            <mxPoint x="870" y="110" as="targetPoint" />
          </mxGeometry>
        </mxCell>
        <mxCell id="RDJNClESdxmCvVbitQK3-27" value="Router" style="text;strokeColor=none;align=center;fillColor=none;html=1;verticalAlign=middle;whiteSpace=wrap;rounded=0;fontFamily=Verdana;fontSize=10;fontColor=#000000;" parent="1" vertex="1">
          <mxGeometry x="760" y="80" width="60" height="30" as="geometry" />
        </mxCell>
        <mxCell id="RDJNClESdxmCvVbitQK3-30" value="" style="fontColor=#0066CC;verticalAlign=top;verticalLabelPosition=bottom;labelPosition=center;align=center;html=1;outlineConnect=0;fillColor=#CCCCCC;strokeColor=#6881B3;gradientColor=none;gradientDirection=north;strokeWidth=2;shape=mxgraph.networks.pc;fontFamily=Verdana;fontSize=12;" parent="1" vertex="1">
          <mxGeometry x="870" y="65" width="100" height="70" as="geometry" />
        </mxCell>
        <mxCell id="RDJNClESdxmCvVbitQK3-31" value="Gaming PC" style="text;strokeColor=none;align=center;fillColor=none;html=1;verticalAlign=middle;whiteSpace=wrap;rounded=0;fontFamily=Verdana;fontSize=14;fontColor=#000000;fontStyle=1" parent="1" vertex="1">
          <mxGeometry x="890" y="135" width="90" height="40" as="geometry" />
        </mxCell>
        <mxCell id="RDJNClESdxmCvVbitQK3-32" value="CPU: AMD Ryzen 3600&lt;br style=&quot;font-size: 12px;&quot;&gt;GPU : Gigabyte NVIDA GTX 1660 SUPER&lt;br style=&quot;font-size: 12px;&quot;&gt;RAM : 16GB (2x8GB) DDR4 3200 MHz&lt;br style=&quot;font-size: 12px;&quot;&gt;SSD : 1 TB GB Kingston A2000 NVMe M.2&lt;br style=&quot;font-size: 12px;&quot;&gt;OS: Windows 10 Pro 64-bit / Arch Linux" style="rounded=1;whiteSpace=wrap;html=1;fontFamily=Verdana;fontSize=12;fillColor=#dae8fc;strokeColor=#6c8ebf;align=left;" parent="1" vertex="1">
          <mxGeometry x="820" y="170" width="270" height="100" as="geometry" />
        </mxCell>
        <mxCell id="RDJNClESdxmCvVbitQK3-35" value="" style="endArrow=none;html=1;rounded=0;labelBorderColor=none;strokeColor=#6c8ebf;strokeWidth=2;fontFamily=Verdana;fontSize=10;fontColor=#000000;fillColor=#dae8fc;" parent="1" source="RDJNClESdxmCvVbitQK3-24" edge="1">
          <mxGeometry width="50" height="50" relative="1" as="geometry">
            <mxPoint x="635.77" y="260" as="sourcePoint" />
            <mxPoint x="710" y="320" as="targetPoint" />
          </mxGeometry>
        </mxCell>
        <mxCell id="RDJNClESdxmCvVbitQK3-37" value="" style="fontColor=#0066CC;verticalAlign=top;verticalLabelPosition=bottom;labelPosition=center;align=center;html=1;outlineConnect=0;fillColor=#CCCCCC;strokeColor=#6881B3;gradientColor=none;gradientDirection=north;strokeWidth=2;shape=mxgraph.networks.switch;fontFamily=Verdana;fontSize=12;" parent="1" vertex="1">
          <mxGeometry x="670" y="320" width="100" height="30" as="geometry" />
        </mxCell>
        <mxCell id="RDJNClESdxmCvVbitQK3-38" value="" style="shape=image;imageAspect=0;aspect=fixed;verticalLabelPosition=bottom;verticalAlign=top;fontFamily=Verdana;fontSize=12;fontColor=#000000;image=https://mikrotik.com/img/mtv2/newlogo.svg;" parent="1" vertex="1">
          <mxGeometry x="630" y="294.27" width="148.46" height="25.73" as="geometry" />
        </mxCell>
        <mxCell id="RDJNClESdxmCvVbitQK3-39" value="mgmt switch eth0/1&lt;br&gt;10.0.1.5" style="text;strokeColor=none;align=center;fillColor=none;html=1;verticalAlign=middle;whiteSpace=wrap;rounded=0;fontFamily=Verdana;fontSize=12;fontColor=#000000;" parent="1" vertex="1">
          <mxGeometry x="664.23" y="370" width="120" height="20" as="geometry" />
        </mxCell>
        <mxCell id="RDJNClESdxmCvVbitQK3-40" value="" style="endArrow=none;html=1;rounded=0;labelBorderColor=none;strokeColor=#6c8ebf;strokeWidth=2;fontFamily=Verdana;fontSize=10;fontColor=#000000;fillColor=#dae8fc;" parent="1" edge="1">
          <mxGeometry width="50" height="50" relative="1" as="geometry">
            <mxPoint x="560" y="334.5" as="sourcePoint" />
            <mxPoint x="670" y="335" as="targetPoint" />
          </mxGeometry>
        </mxCell>
        <mxCell id="RDJNClESdxmCvVbitQK3-41" value="eth3" style="text;strokeColor=none;align=center;fillColor=none;html=1;verticalAlign=middle;whiteSpace=wrap;rounded=0;fontFamily=Verdana;fontSize=10;fontColor=#000000;" parent="1" vertex="1">
          <mxGeometry x="550" y="330" width="60" height="30" as="geometry" />
        </mxCell>
        <mxCell id="RDJNClESdxmCvVbitQK3-42" value="" style="image;html=1;image=img/lib/clip_art/networking/Firewall_02_128x128.png;fontFamily=Verdana;fontSize=12;fontColor=#000000;" parent="1" vertex="1">
          <mxGeometry x="530" y="420" width="60" height="50" as="geometry" />
        </mxCell>
        <mxCell id="RDJNClESdxmCvVbitQK3-44" value="" style="aspect=fixed;perimeter=ellipsePerimeter;html=1;align=center;shadow=0;dashed=0;spacingTop=3;image;image=img/lib/active_directory/generic_server.svg;fontFamily=Verdana;fontSize=12;fontColor=#000000;" parent="1" vertex="1">
          <mxGeometry x="540" y="528.57" width="40" height="71.43" as="geometry" />
        </mxCell>
        <mxCell id="RDJNClESdxmCvVbitQK3-46" value="" style="endArrow=none;html=1;rounded=0;labelBorderColor=none;strokeColor=#6c8ebf;strokeWidth=2;fontFamily=Verdana;fontSize=10;fontColor=#000000;fillColor=#dae8fc;" parent="1" edge="1">
          <mxGeometry width="50" height="50" relative="1" as="geometry">
            <mxPoint x="559.5" y="470" as="sourcePoint" />
            <mxPoint x="560" y="535" as="targetPoint" />
          </mxGeometry>
        </mxCell>
        <mxCell id="RDJNClESdxmCvVbitQK3-47" value="" style="shape=image;html=1;verticalAlign=top;verticalLabelPosition=bottom;labelBackgroundColor=#ffffff;imageAspect=0;aspect=fixed;image=https://cdn1.iconfinder.com/data/icons/fruit-136/64/Fruit_iconfree_Filled_Outline_raspberry-healthy-organic-food-fruit_icon-128.png;fontFamily=Verdana;fontSize=10;fontColor=#000000;" parent="1" vertex="1">
          <mxGeometry x="580" y="535" width="50" height="50" as="geometry" />
        </mxCell>
        <mxCell id="RDJNClESdxmCvVbitQK3-48" value="&lt;h1 style=&quot;line-height: 120%;&quot;&gt;&lt;br&gt;&lt;/h1&gt;" style="rounded=1;whiteSpace=wrap;html=1;fontFamily=Verdana;fontSize=12;fillColor=#dae8fc;strokeColor=#6c8ebf;align=center;" parent="1" vertex="1">
          <mxGeometry x="450" y="600" width="220" height="170" as="geometry" />
        </mxCell>
        <mxCell id="RDJNClESdxmCvVbitQK3-49" value="&lt;p style=&quot;border-color: var(--border-color); line-height: 0%; font-size: 15px;&quot;&gt;&lt;font style=&quot;font-size: 15px;&quot;&gt;&lt;font style=&quot;font-size: 15px;&quot;&gt;Raspberry&lt;/font&gt; Pi&lt;/font&gt;&lt;/p&gt;&lt;div style=&quot;border-color: var(--border-color); font-size: 15px; line-height: 0%;&quot;&gt;&lt;font style=&quot;font-size: 15px;&quot;&gt;10.0.10.10&lt;/font&gt;&lt;/div&gt;" style="rounded=0;whiteSpace=wrap;html=1;fontFamily=Verdana;fontSize=10;align=center;fillColor=#b0e3e6;strokeColor=#0e8088;" parent="1" vertex="1">
          <mxGeometry x="505" y="601.43" width="110" height="49" as="geometry" />
        </mxCell>
        <mxCell id="RDJNClESdxmCvVbitQK3-50" value="" style="shape=image;html=1;verticalAlign=top;verticalLabelPosition=bottom;labelBackgroundColor=#ffffff;imageAspect=0;aspect=fixed;image=https://cdn1.iconfinder.com/data/icons/Vista-Inspirate_1.0/128x128/apps/debian.png;fontFamily=Verdana;fontSize=15;fontColor=#000000;" parent="1" vertex="1">
          <mxGeometry x="615" y="601.4300000000001" width="60" height="60" as="geometry" />
        </mxCell>
        <mxCell id="RDJNClESdxmCvVbitQK3-53" value="" style="endArrow=none;html=1;rounded=0;labelBorderColor=none;strokeColor=#6c8ebf;strokeWidth=2;fontFamily=Verdana;fontSize=10;fontColor=#000000;fillColor=#dae8fc;entryX=0.5;entryY=0;entryDx=0;entryDy=0;" parent="1" edge="1">
          <mxGeometry width="50" height="50" relative="1" as="geometry">
            <mxPoint x="560" y="334.5" as="sourcePoint" />
            <mxPoint x="560" y="420" as="targetPoint" />
            <Array as="points">
              <mxPoint x="560" y="380" />
            </Array>
          </mxGeometry>
        </mxCell>
        <mxCell id="RDJNClESdxmCvVbitQK3-54" value="" style="endArrow=none;html=1;rounded=0;labelBorderColor=none;strokeColor=#6c8ebf;strokeWidth=2;fontFamily=Verdana;fontSize=10;fontColor=#000000;fillColor=#dae8fc;" parent="1" edge="1">
          <mxGeometry width="50" height="50" relative="1" as="geometry">
            <mxPoint x="770" y="334.5" as="sourcePoint" />
            <mxPoint x="880" y="335" as="targetPoint" />
          </mxGeometry>
        </mxCell>
        <mxCell id="RDJNClESdxmCvVbitQK3-55" value="" style="endArrow=none;html=1;rounded=0;labelBorderColor=none;strokeColor=#6c8ebf;strokeWidth=2;fontFamily=Verdana;fontSize=10;fontColor=#000000;fillColor=#dae8fc;entryX=0.5;entryY=0;entryDx=0;entryDy=0;" parent="1" edge="1">
          <mxGeometry width="50" height="50" relative="1" as="geometry">
            <mxPoint x="880" y="334.5" as="sourcePoint" />
            <mxPoint x="880" y="420" as="targetPoint" />
            <Array as="points">
              <mxPoint x="880" y="380" />
            </Array>
          </mxGeometry>
        </mxCell>
        <mxCell id="RDJNClESdxmCvVbitQK3-56" value="" style="image;html=1;image=img/lib/clip_art/networking/Firewall_02_128x128.png;fontFamily=Verdana;fontSize=12;fontColor=#000000;" parent="1" vertex="1">
          <mxGeometry x="850" y="420" width="60" height="50" as="geometry" />
        </mxCell>
        <mxCell id="RDJNClESdxmCvVbitQK3-57" value="eth4" style="text;strokeColor=none;align=center;fillColor=none;html=1;verticalAlign=middle;whiteSpace=wrap;rounded=0;fontFamily=Verdana;fontSize=10;fontColor=#000000;" parent="1" vertex="1">
          <mxGeometry x="820" y="330" width="60" height="30" as="geometry" />
        </mxCell>
        <mxCell id="RDJNClESdxmCvVbitQK3-58" value="" style="aspect=fixed;perimeter=ellipsePerimeter;html=1;align=center;shadow=0;dashed=0;spacingTop=3;image;image=img/lib/active_directory/generic_server.svg;fontFamily=Verdana;fontSize=12;fontColor=#000000;" parent="1" vertex="1">
          <mxGeometry x="860" y="524.2800000000001" width="40" height="71.43" as="geometry" />
        </mxCell>
        <mxCell id="RDJNClESdxmCvVbitQK3-59" value="" style="endArrow=none;html=1;rounded=0;labelBorderColor=none;strokeColor=#6c8ebf;strokeWidth=2;fontFamily=Verdana;fontSize=10;fontColor=#000000;fillColor=#dae8fc;" parent="1" edge="1">
          <mxGeometry width="50" height="50" relative="1" as="geometry">
            <mxPoint x="880" y="463.57" as="sourcePoint" />
            <mxPoint x="880.5" y="528.57" as="targetPoint" />
          </mxGeometry>
        </mxCell>
        <mxCell id="RDJNClESdxmCvVbitQK3-60" value="" style="shape=image;html=1;verticalAlign=top;verticalLabelPosition=bottom;labelBackgroundColor=#ffffff;imageAspect=0;aspect=fixed;image=https://cdn1.iconfinder.com/data/icons/fruit-136/64/Fruit_iconfree_Filled_Outline_raspberry-healthy-organic-food-fruit_icon-128.png;fontFamily=Verdana;fontSize=10;fontColor=#000000;" parent="1" vertex="1">
          <mxGeometry x="900" y="539.29" width="50" height="50" as="geometry" />
        </mxCell>
        <mxCell id="RDJNClESdxmCvVbitQK3-61" value="&lt;h1 style=&quot;line-height: 120%;&quot;&gt;&lt;br&gt;&lt;/h1&gt;" style="rounded=1;whiteSpace=wrap;html=1;fontFamily=Verdana;fontSize=12;fillColor=#dae8fc;strokeColor=#6c8ebf;align=center;" parent="1" vertex="1">
          <mxGeometry x="770" y="595.71" width="220" height="170" as="geometry" />
        </mxCell>
        <mxCell id="RDJNClESdxmCvVbitQK3-62" value="&lt;p style=&quot;border-color: var(--border-color); line-height: 0%; font-size: 15px;&quot;&gt;&lt;font style=&quot;font-size: 15px;&quot;&gt;&lt;font style=&quot;font-size: 15px;&quot;&gt;Raspberry&lt;/font&gt; Pi&lt;/font&gt;&lt;/p&gt;&lt;div style=&quot;border-color: var(--border-color); font-size: 15px; line-height: 0%;&quot;&gt;&lt;font style=&quot;font-size: 15px;&quot;&gt;10.0.10.11&lt;/font&gt;&lt;/div&gt;" style="rounded=0;whiteSpace=wrap;html=1;fontFamily=Verdana;fontSize=10;align=center;fillColor=#b0e3e6;strokeColor=#0e8088;" parent="1" vertex="1">
          <mxGeometry x="827" y="600" width="110" height="49" as="geometry" />
        </mxCell>
        <mxCell id="RDJNClESdxmCvVbitQK3-63" value="" style="shape=image;html=1;verticalAlign=top;verticalLabelPosition=bottom;labelBackgroundColor=#ffffff;imageAspect=0;aspect=fixed;image=https://cdn1.iconfinder.com/data/icons/Vista-Inspirate_1.0/128x128/apps/debian.png;fontFamily=Verdana;fontSize=15;fontColor=#000000;" parent="1" vertex="1">
          <mxGeometry x="937" y="595.9300000000001" width="60" height="60" as="geometry" />
        </mxCell>
        <mxCell id="RDJNClESdxmCvVbitQK3-64" value="" style="shape=image;imageAspect=0;aspect=fixed;verticalLabelPosition=bottom;verticalAlign=top;fontFamily=Verdana;fontSize=15;fontColor=#000000;image=https://wp-cdn.pi-hole.net/wp-content/uploads/2016/12/Vortex-R.webp;" parent="1" vertex="1">
          <mxGeometry x="445" y="649" width="60" height="60" as="geometry" />
        </mxCell>
        <mxCell id="RDJNClESdxmCvVbitQK3-65" value="" style="shape=image;imageAspect=0;aspect=fixed;verticalLabelPosition=bottom;verticalAlign=top;fontFamily=Verdana;fontSize=15;fontColor=#000000;image=https://www.vectorlogo.zone/logos/torproject/torproject-ar21.svg;" parent="1" vertex="1">
          <mxGeometry x="491.42" y="656.07" width="98.58" height="49.29" as="geometry" />
        </mxCell>
        <mxCell id="RDJNClESdxmCvVbitQK3-66" value="" style="shape=image;imageAspect=0;aspect=fixed;verticalLabelPosition=bottom;verticalAlign=top;fontFamily=Verdana;fontSize=15;fontColor=#000000;image=https://cdn.worldvectorlogo.com/logos/portainer.svg;" parent="1" vertex="1">
          <mxGeometry x="572.0799999999999" y="650.72" width="42.92" height="60" as="geometry" />
        </mxCell>
        <mxCell id="RDJNClESdxmCvVbitQK3-67" value="" style="shape=image;imageAspect=0;aspect=fixed;verticalLabelPosition=bottom;verticalAlign=top;fontFamily=Verdana;fontSize=15;fontColor=#000000;image=https://nginxproxymanager.com/icon.png;" parent="1" vertex="1">
          <mxGeometry x="610" y="650.72" width="59.28" height="59.28" as="geometry" />
        </mxCell>
        <mxCell id="RDJNClESdxmCvVbitQK3-68" value="" style="shape=image;imageAspect=0;aspect=fixed;verticalLabelPosition=bottom;verticalAlign=top;fontFamily=Verdana;fontSize=15;fontColor=#000000;image=https://www.pngfind.com/pngs/m/554-5549575_share-heimdall-docker-hd-png-download.png;" parent="1" vertex="1">
          <mxGeometry x="531.39" y="705.36" width="57.23" height="60" as="geometry" />
        </mxCell>
        <mxCell id="RDJNClESdxmCvVbitQK3-74" value="" style="shape=image;imageAspect=0;aspect=fixed;verticalLabelPosition=bottom;verticalAlign=top;fontFamily=Verdana;fontSize=15;fontColor=#000000;image=https://upload.wikimedia.org/wikipedia/commons/thumb/6/60/Nextcloud_Logo.svg/2560px-Nextcloud_Logo.svg.png;" parent="1" vertex="1">
          <mxGeometry x="770" y="650" width="84.55" height="60" as="geometry" />
        </mxCell>
        <mxCell id="RDJNClESdxmCvVbitQK3-75" value="" style="shape=image;imageAspect=0;aspect=fixed;verticalLabelPosition=bottom;verticalAlign=top;fontFamily=Verdana;fontSize=15;fontColor=#000000;image=https://wp-cdn.pi-hole.net/wp-content/uploads/2016/12/Vortex-R.webp;" parent="1" vertex="1">
          <mxGeometry x="850" y="645.36" width="60" height="60" as="geometry" />
        </mxCell>
        <mxCell id="RDJNClESdxmCvVbitQK3-76" value="" style="shape=image;imageAspect=0;aspect=fixed;verticalLabelPosition=bottom;verticalAlign=top;fontFamily=Verdana;fontSize=15;fontColor=#000000;image=https://imgs.search.brave.com/7_urazSqvRp1KNa6Ie_UpJetEOEESkQ9TRZAERwc6LA/rs:fit:860:741:1/g:ce/aHR0cHM6Ly93d3cu/a2luZHBuZy5jb20v/cGljYy9tLzY2MS02/NjE4ODA3X21hcmlh/ZGItb2ZmaWNpYWwt/bG9nby1tYXJpYWRi/LWNvcnBvcmF0aW9u/LWxvZ28taGQtcG5n/LnBuZw;" parent="1" vertex="1">
          <mxGeometry x="784.23" y="710.72" width="58.04" height="50" as="geometry" />
        </mxCell>
      </root>
    </mxGraphModel>
  </diagram>
</mxfile>
